<?xml version="1.0" encoding="UTF-8"?>
<svg xmlns="http://www.w3.org/2000/svg" width="1440" height="240" viewBox="0 0 1440 240">
<rect width="100%" height="100%" fill="none"/>
<rect x="20" y="0" width="20" height="20" fill="#000000"/>\n<rect x="40" y="0" width="20" height="20" fill="#000000"/>\n<rect x="60" y="0" width="20" height="20" fill="#000000"/>\n<rect x="80" y="0" width="20" height="20" fill="#000000"/>\n<rect x="1200" y="0" width="20" height="20" fill="#000000"/>\n<rect x="1220" y="0" width="20" height="20" fill="#000000"/>\n<rect x="1240" y="0" width="20" height="20" fill="#000000"/>\n<rect x="1260" y="0" width="20" height="20" fill="#000000"/>\n<rect x="1340" y="0" width="20" height="20" fill="#000000"/>\n<rect x="1360" y="0" width="20" height="20" fill="#000000"/>\n<rect x="1380" y="0" width="20" height="20" fill="#000000"/>\n<rect x="1400" y="0" width="20" height="20" fill="#000000"/>\n<rect x="0" y="20" width="20" height="20" fill="#000000"/>\n<rect x="20" y="20" width="20" height="20" fill="#000000"/>\n<rect x="60" y="20" width="20" height="20" fill="#000000"/>\n<rect x="80" y="20" width="20" height="20" fill="#000000"/>\n<rect x="100" y="20" width="20" height="20" fill="#000000"/>\n<rect x="300" y="20" width="20" height="20" fill="#000000"/>\n<rect x="360" y="20" width="20" height="20" fill="#000000"/>\n<rect x="720" y="20" width="20" height="20" fill="#000000"/>\n<rect x="820" y="20" width="20" height="20" fill="#000000"/>\n<rect x="1180" y="20" width="20" height="20" fill="#000000"/>\n<rect x="1200" y="20" width="20" height="20" fill="#000000"/>\n<rect x="1240" y="20" width="20" height="20" fill="#000000"/>\n<rect x="1260" y="20" width="20" height="20" fill="#000000"/>\n<rect x="1280" y="20" width="20" height="20" fill="#000000"/>\n<rect x="1320" y="20" width="20" height="20" fill="#000000"/>\n<rect x="1340" y="20" width="20" height="20" fill="#000000"/>\n<rect x="1380" y="20" width="20" height="20" fill="#000000"/>\n<rect x="1400" y="20" width="20" height="20" fill="#000000"/>\n<rect x="1420" y="20" width="20" height="20" fill="#000000"/>\n<rect x="0" y="40" width="20" height="20" fill="#000000"/>\n<rect x="20" y="40" width="20" height="20" fill="#000000"/>\n<rect x="80" y="40" width="20" height="20" fill="#000000"/>\n<rect x="100" y="40" width="20" height="20" fill="#000000"/>\n<rect x="280" y="40" width="20" height="20" fill="#000000"/>\n<rect x="300" y="40" width="20" height="20" fill="#000000"/>\n<rect x="340" y="40" width="20" height="20" fill="#000000"/>\n<rect x="360" y="40" width="20" height="20" fill="#000000"/>\n<rect x="700" y="40" width="20" height="20" fill="#000000"/>\n<rect x="720" y="40" width="20" height="20" fill="#000000"/>\n<rect x="800" y="40" width="20" height="20" fill="#000000"/>\n<rect x="820" y="40" width="20" height="20" fill="#000000"/>\n<rect x="1180" y="40" width="20" height="20" fill="#000000"/>\n<rect x="1200" y="40" width="20" height="20" fill="#000000"/>\n<rect x="1260" y="40" width="20" height="20" fill="#000000"/>\n<rect x="1280" y="40" width="20" height="20" fill="#000000"/>\n<rect x="1320" y="40" width="20" height="20" fill="#000000"/>\n<rect x="1340" y="40" width="20" height="20" fill="#000000"/>\n<rect x="1400" y="40" width="20" height="20" fill="#000000"/>\n<rect x="1420" y="40" width="20" height="20" fill="#000000"/>\n<rect x="0" y="60" width="20" height="20" fill="#000000"/>\n<rect x="20" y="60" width="20" height="20" fill="#000000"/>\n<rect x="80" y="60" width="20" height="20" fill="#000000"/>\n<rect x="100" y="60" width="20" height="20" fill="#000000"/>\n<rect x="160" y="60" width="20" height="20" fill="#000000"/>\n<rect x="180" y="60" width="20" height="20" fill="#000000"/>\n<rect x="200" y="60" width="20" height="20" fill="#000000"/>\n<rect x="220" y="60" width="20" height="20" fill="#000000"/>\n<rect x="280" y="60" width="20" height="20" fill="#000000"/>\n<rect x="300" y="60" width="20" height="20" fill="#000000"/>\n<rect x="340" y="60" width="20" height="20" fill="#000000"/>\n<rect x="360" y="60" width="20" height="20" fill="#000000"/>\n<rect x="420" y="60" width="20" height="20" fill="#000000"/>\n<rect x="440" y="60" width="20" height="20" fill="#000000"/>\n<rect x="460" y="60" width="20" height="20" fill="#000000"/>\n<rect x="480" y="60" width="20" height="20" fill="#000000"/>\n<rect x="560" y="60" width="20" height="20" fill="#000000"/>\n<rect x="580" y="60" width="20" height="20" fill="#000000"/>\n<rect x="600" y="60" width="20" height="20" fill="#000000"/>\n<rect x="620" y="60" width="20" height="20" fill="#000000"/>\n<rect x="680" y="60" width="20" height="20" fill="#000000"/>\n<rect x="700" y="60" width="20" height="20" fill="#000000"/>\n<rect x="720" y="60" width="20" height="20" fill="#000000"/>\n<rect x="740" y="60" width="20" height="20" fill="#000000"/>\n<rect x="760" y="60" width="20" height="20" fill="#000000"/>\n<rect x="860" y="60" width="20" height="20" fill="#000000"/>\n<rect x="880" y="60" width="20" height="20" fill="#000000"/>\n<rect x="960" y="60" width="20" height="20" fill="#000000"/>\n<rect x="980" y="60" width="20" height="20" fill="#000000"/>\n<rect x="1040" y="60" width="20" height="20" fill="#000000"/>\n<rect x="1060" y="60" width="20" height="20" fill="#000000"/>\n<rect x="1080" y="60" width="20" height="20" fill="#000000"/>\n<rect x="1100" y="60" width="20" height="20" fill="#000000"/>\n<rect x="1180" y="60" width="20" height="20" fill="#000000"/>\n<rect x="1200" y="60" width="20" height="20" fill="#000000"/>\n<rect x="1260" y="60" width="20" height="20" fill="#000000"/>\n<rect x="1280" y="60" width="20" height="20" fill="#000000"/>\n<rect x="1320" y="60" width="20" height="20" fill="#000000"/>\n<rect x="1340" y="60" width="20" height="20" fill="#000000"/>\n<rect x="1400" y="60" width="20" height="20" fill="#000000"/>\n<rect x="1420" y="60" width="20" height="20" fill="#000000"/>\n<rect x="0" y="80" width="20" height="20" fill="#000000"/>\n<rect x="20" y="80" width="20" height="20" fill="#000000"/>\n<rect x="140" y="80" width="20" height="20" fill="#000000"/>\n<rect x="160" y="80" width="20" height="20" fill="#000000"/>\n<rect x="200" y="80" width="20" height="20" fill="#000000"/>\n<rect x="220" y="80" width="20" height="20" fill="#000000"/>\n<rect x="240" y="80" width="20" height="20" fill="#000000"/>\n<rect x="280" y="80" width="20" height="20" fill="#000000"/>\n<rect x="300" y="80" width="20" height="20" fill="#000000"/>\n<rect x="340" y="80" width="20" height="20" fill="#000000"/>\n<rect x="360" y="80" width="20" height="20" fill="#000000"/>\n<rect x="400" y="80" width="20" height="20" fill="#000000"/>\n<rect x="420" y="80" width="20" height="20" fill="#000000"/>\n<rect x="460" y="80" width="20" height="20" fill="#000000"/>\n<rect x="480" y="80" width="20" height="20" fill="#000000"/>\n<rect x="500" y="80" width="20" height="20" fill="#000000"/>\n<rect x="540" y="80" width="20" height="20" fill="#000000"/>\n<rect x="560" y="80" width="20" height="20" fill="#000000"/>\n<rect x="600" y="80" width="20" height="20" fill="#000000"/>\n<rect x="620" y="80" width="20" height="20" fill="#000000"/>\n<rect x="640" y="80" width="20" height="20" fill="#000000"/>\n<rect x="680" y="80" width="20" height="20" fill="#000000"/>\n<rect x="700" y="80" width="20" height="20" fill="#000000"/>\n<rect x="720" y="80" width="20" height="20" fill="#000000"/>\n<rect x="740" y="80" width="20" height="20" fill="#000000"/>\n<rect x="760" y="80" width="20" height="20" fill="#000000"/>\n<rect x="820" y="80" width="20" height="20" fill="#000000"/>\n<rect x="860" y="80" width="20" height="20" fill="#000000"/>\n<rect x="880" y="80" width="20" height="20" fill="#000000"/>\n<rect x="960" y="80" width="20" height="20" fill="#000000"/>\n<rect x="980" y="80" width="20" height="20" fill="#000000"/>\n<rect x="1020" y="80" width="20" height="20" fill="#000000"/>\n<rect x="1040" y="80" width="20" height="20" fill="#000000"/>\n<rect x="1080" y="80" width="20" height="20" fill="#000000"/>\n<rect x="1100" y="80" width="20" height="20" fill="#000000"/>\n<rect x="1120" y="80" width="20" height="20" fill="#000000"/>\n<rect x="1180" y="80" width="20" height="20" fill="#000000"/>\n<rect x="1200" y="80" width="20" height="20" fill="#000000"/>\n<rect x="1260" y="80" width="20" height="20" fill="#000000"/>\n<rect x="1280" y="80" width="20" height="20" fill="#000000"/>\n<rect x="1320" y="80" width="20" height="20" fill="#000000"/>\n<rect x="1340" y="80" width="20" height="20" fill="#000000"/>\n<rect x="0" y="100" width="20" height="20" fill="#000000"/>\n<rect x="20" y="100" width="20" height="20" fill="#000000"/>\n<rect x="140" y="100" width="20" height="20" fill="#000000"/>\n<rect x="160" y="100" width="20" height="20" fill="#000000"/>\n<rect x="220" y="100" width="20" height="20" fill="#000000"/>\n<rect x="240" y="100" width="20" height="20" fill="#000000"/>\n<rect x="280" y="100" width="20" height="20" fill="#000000"/>\n<rect x="300" y="100" width="20" height="20" fill="#000000"/>\n<rect x="340" y="100" width="20" height="20" fill="#000000"/>\n<rect x="360" y="100" width="20" height="20" fill="#000000"/>\n<rect x="400" y="100" width="20" height="20" fill="#000000"/>\n<rect x="420" y="100" width="20" height="20" fill="#000000"/>\n<rect x="480" y="100" width="20" height="20" fill="#000000"/>\n<rect x="500" y="100" width="20" height="20" fill="#000000"/>\n<rect x="540" y="100" width="20" height="20" fill="#000000"/>\n<rect x="560" y="100" width="20" height="20" fill="#000000"/>\n<rect x="620" y="100" width="20" height="20" fill="#000000"/>\n<rect x="640" y="100" width="20" height="20" fill="#000000"/>\n<rect x="700" y="100" width="20" height="20" fill="#000000"/>\n<rect x="720" y="100" width="20" height="20" fill="#000000"/>\n<rect x="800" y="100" width="20" height="20" fill="#000000"/>\n<rect x="820" y="100" width="20" height="20" fill="#000000"/>\n<rect x="860" y="100" width="20" height="20" fill="#000000"/>\n<rect x="880" y="100" width="20" height="20" fill="#000000"/>\n<rect x="960" y="100" width="20" height="20" fill="#000000"/>\n<rect x="980" y="100" width="20" height="20" fill="#000000"/>\n<rect x="1020" y="100" width="20" height="20" fill="#000000"/>\n<rect x="1040" y="100" width="20" height="20" fill="#000000"/>\n<rect x="1100" y="100" width="20" height="20" fill="#000000"/>\n<rect x="1120" y="100" width="20" height="20" fill="#000000"/>\n<rect x="1180" y="100" width="20" height="20" fill="#000000"/>\n<rect x="1200" y="100" width="20" height="20" fill="#000000"/>\n<rect x="1260" y="100" width="20" height="20" fill="#000000"/>\n<rect x="1280" y="100" width="20" height="20" fill="#000000"/>\n<rect x="1320" y="100" width="20" height="20" fill="#000000"/>\n<rect x="1340" y="100" width="20" height="20" fill="#000000"/>\n<rect x="0" y="120" width="20" height="20" fill="#000000"/>\n<rect x="20" y="120" width="20" height="20" fill="#000000"/>\n<rect x="140" y="120" width="20" height="20" fill="#000000"/>\n<rect x="160" y="120" width="20" height="20" fill="#000000"/>\n<rect x="220" y="120" width="20" height="20" fill="#000000"/>\n<rect x="240" y="120" width="20" height="20" fill="#000000"/>\n<rect x="280" y="120" width="20" height="20" fill="#000000"/>\n<rect x="300" y="120" width="20" height="20" fill="#000000"/>\n<rect x="340" y="120" width="20" height="20" fill="#000000"/>\n<rect x="360" y="120" width="20" height="20" fill="#000000"/>\n<rect x="400" y="120" width="20" height="20" fill="#000000"/>\n<rect x="420" y="120" width="20" height="20" fill="#000000"/>\n<rect x="480" y="120" width="20" height="20" fill="#000000"/>\n<rect x="500" y="120" width="20" height="20" fill="#000000"/>\n<rect x="540" y="120" width="20" height="20" fill="#000000"/>\n<rect x="560" y="120" width="20" height="20" fill="#000000"/>\n<rect x="700" y="120" width="20" height="20" fill="#000000"/>\n<rect x="720" y="120" width="20" height="20" fill="#000000"/>\n<rect x="800" y="120" width="20" height="20" fill="#000000"/>\n<rect x="820" y="120" width="20" height="20" fill="#000000"/>\n<rect x="860" y="120" width="20" height="20" fill="#000000"/>\n<rect x="880" y="120" width="20" height="20" fill="#000000"/>\n<rect x="960" y="120" width="20" height="20" fill="#000000"/>\n<rect x="980" y="120" width="20" height="20" fill="#000000"/>\n<rect x="1020" y="120" width="20" height="20" fill="#000000"/>\n<rect x="1040" y="120" width="20" height="20" fill="#000000"/>\n<rect x="1100" y="120" width="20" height="20" fill="#000000"/>\n<rect x="1120" y="120" width="20" height="20" fill="#000000"/>\n<rect x="1180" y="120" width="20" height="20" fill="#000000"/>\n<rect x="1200" y="120" width="20" height="20" fill="#000000"/>\n<rect x="1260" y="120" width="20" height="20" fill="#000000"/>\n<rect x="1280" y="120" width="20" height="20" fill="#000000"/>\n<rect x="1340" y="120" width="20" height="20" fill="#000000"/>\n<rect x="1360" y="120" width="20" height="20" fill="#000000"/>\n<rect x="1380" y="120" width="20" height="20" fill="#000000"/>\n<rect x="1400" y="120" width="20" height="20" fill="#000000"/>\n<rect x="0" y="140" width="20" height="20" fill="#000000"/>\n<rect x="20" y="140" width="20" height="20" fill="#000000"/>\n<rect x="140" y="140" width="20" height="20" fill="#000000"/>\n<rect x="160" y="140" width="20" height="20" fill="#000000"/>\n<rect x="220" y="140" width="20" height="20" fill="#000000"/>\n<rect x="240" y="140" width="20" height="20" fill="#000000"/>\n<rect x="280" y="140" width="20" height="20" fill="#000000"/>\n<rect x="300" y="140" width="20" height="20" fill="#000000"/>\n<rect x="340" y="140" width="20" height="20" fill="#000000"/>\n<rect x="360" y="140" width="20" height="20" fill="#000000"/>\n<rect x="400" y="140" width="20" height="20" fill="#000000"/>\n<rect x="420" y="140" width="20" height="20" fill="#000000"/>\n<rect x="440" y="140" width="20" height="20" fill="#000000"/>\n<rect x="460" y="140" width="20" height="20" fill="#000000"/>\n<rect x="480" y="140" width="20" height="20" fill="#000000"/>\n<rect x="500" y="140" width="20" height="20" fill="#000000"/>\n<rect x="540" y="140" width="20" height="20" fill="#000000"/>\n<rect x="560" y="140" width="20" height="20" fill="#000000"/>\n<rect x="700" y="140" width="20" height="20" fill="#000000"/>\n<rect x="720" y="140" width="20" height="20" fill="#000000"/>\n<rect x="800" y="140" width="20" height="20" fill="#000000"/>\n<rect x="820" y="140" width="20" height="20" fill="#000000"/>\n<rect x="860" y="140" width="20" height="20" fill="#000000"/>\n<rect x="880" y="140" width="20" height="20" fill="#000000"/>\n<rect x="960" y="140" width="20" height="20" fill="#000000"/>\n<rect x="980" y="140" width="20" height="20" fill="#000000"/>\n<rect x="1020" y="140" width="20" height="20" fill="#000000"/>\n<rect x="1040" y="140" width="20" height="20" fill="#000000"/>\n<rect x="1060" y="140" width="20" height="20" fill="#000000"/>\n<rect x="1080" y="140" width="20" height="20" fill="#000000"/>\n<rect x="1100" y="140" width="20" height="20" fill="#000000"/>\n<rect x="1120" y="140" width="20" height="20" fill="#000000"/>\n<rect x="1180" y="140" width="20" height="20" fill="#000000"/>\n<rect x="1200" y="140" width="20" height="20" fill="#000000"/>\n<rect x="1260" y="140" width="20" height="20" fill="#000000"/>\n<rect x="1280" y="140" width="20" height="20" fill="#000000"/>\n<rect x="1360" y="140" width="20" height="20" fill="#000000"/>\n<rect x="1380" y="140" width="20" height="20" fill="#000000"/>\n<rect x="1400" y="140" width="20" height="20" fill="#000000"/>\n<rect x="1420" y="140" width="20" height="20" fill="#000000"/>\n<rect x="0" y="160" width="20" height="20" fill="#000000"/>\n<rect x="20" y="160" width="20" height="20" fill="#000000"/>\n<rect x="80" y="160" width="20" height="20" fill="#000000"/>\n<rect x="100" y="160" width="20" height="20" fill="#000000"/>\n<rect x="140" y="160" width="20" height="20" fill="#000000"/>\n<rect x="160" y="160" width="20" height="20" fill="#000000"/>\n<rect x="220" y="160" width="20" height="20" fill="#000000"/>\n<rect x="240" y="160" width="20" height="20" fill="#000000"/>\n<rect x="280" y="160" width="20" height="20" fill="#000000"/>\n<rect x="300" y="160" width="20" height="20" fill="#000000"/>\n<rect x="340" y="160" width="20" height="20" fill="#000000"/>\n<rect x="360" y="160" width="20" height="20" fill="#000000"/>\n<rect x="400" y="160" width="20" height="20" fill="#000000"/>\n<rect x="420" y="160" width="20" height="20" fill="#000000"/>\n<rect x="440" y="160" width="20" height="20" fill="#000000"/>\n<rect x="460" y="160" width="20" height="20" fill="#000000"/>\n<rect x="480" y="160" width="20" height="20" fill="#000000"/>\n<rect x="500" y="160" width="20" height="20" fill="#000000"/>\n<rect x="540" y="160" width="20" height="20" fill="#000000"/>\n<rect x="560" y="160" width="20" height="20" fill="#000000"/>\n<rect x="700" y="160" width="20" height="20" fill="#000000"/>\n<rect x="720" y="160" width="20" height="20" fill="#000000"/>\n<rect x="800" y="160" width="20" height="20" fill="#000000"/>\n<rect x="820" y="160" width="20" height="20" fill="#000000"/>\n<rect x="860" y="160" width="20" height="20" fill="#000000"/>\n<rect x="880" y="160" width="20" height="20" fill="#000000"/>\n<rect x="960" y="160" width="20" height="20" fill="#000000"/>\n<rect x="980" y="160" width="20" height="20" fill="#000000"/>\n<rect x="1020" y="160" width="20" height="20" fill="#000000"/>\n<rect x="1040" y="160" width="20" height="20" fill="#000000"/>\n<rect x="1060" y="160" width="20" height="20" fill="#000000"/>\n<rect x="1080" y="160" width="20" height="20" fill="#000000"/>\n<rect x="1100" y="160" width="20" height="20" fill="#000000"/>\n<rect x="1120" y="160" width="20" height="20" fill="#000000"/>\n<rect x="1180" y="160" width="20" height="20" fill="#000000"/>\n<rect x="1200" y="160" width="20" height="20" fill="#000000"/>\n<rect x="1260" y="160" width="20" height="20" fill="#000000"/>\n<rect x="1280" y="160" width="20" height="20" fill="#000000"/>\n<rect x="1400" y="160" width="20" height="20" fill="#000000"/>\n<rect x="1420" y="160" width="20" height="20" fill="#000000"/>\n<rect x="0" y="180" width="20" height="20" fill="#000000"/>\n<rect x="20" y="180" width="20" height="20" fill="#000000"/>\n<rect x="80" y="180" width="20" height="20" fill="#000000"/>\n<rect x="100" y="180" width="20" height="20" fill="#000000"/>\n<rect x="140" y="180" width="20" height="20" fill="#000000"/>\n<rect x="160" y="180" width="20" height="20" fill="#000000"/>\n<rect x="220" y="180" width="20" height="20" fill="#000000"/>\n<rect x="240" y="180" width="20" height="20" fill="#000000"/>\n<rect x="280" y="180" width="20" height="20" fill="#000000"/>\n<rect x="300" y="180" width="20" height="20" fill="#000000"/>\n<rect x="340" y="180" width="20" height="20" fill="#000000"/>\n<rect x="360" y="180" width="20" height="20" fill="#000000"/>\n<rect x="400" y="180" width="20" height="20" fill="#000000"/>\n<rect x="420" y="180" width="20" height="20" fill="#000000"/>\n<rect x="540" y="180" width="20" height="20" fill="#000000"/>\n<rect x="560" y="180" width="20" height="20" fill="#000000"/>\n<rect x="620" y="180" width="20" height="20" fill="#000000"/>\n<rect x="640" y="180" width="20" height="20" fill="#000000"/>\n<rect x="700" y="180" width="20" height="20" fill="#000000"/>\n<rect x="720" y="180" width="20" height="20" fill="#000000"/>\n<rect x="800" y="180" width="20" height="20" fill="#000000"/>\n<rect x="820" y="180" width="20" height="20" fill="#000000"/>\n<rect x="860" y="180" width="20" height="20" fill="#000000"/>\n<rect x="880" y="180" width="20" height="20" fill="#000000"/>\n<rect x="900" y="180" width="20" height="20" fill="#000000"/>\n<rect x="960" y="180" width="20" height="20" fill="#000000"/>\n<rect x="980" y="180" width="20" height="20" fill="#000000"/>\n<rect x="1020" y="180" width="20" height="20" fill="#000000"/>\n<rect x="1040" y="180" width="20" height="20" fill="#000000"/>\n<rect x="1180" y="180" width="20" height="20" fill="#000000"/>\n<rect x="1200" y="180" width="20" height="20" fill="#000000"/>\n<rect x="1260" y="180" width="20" height="20" fill="#000000"/>\n<rect x="1280" y="180" width="20" height="20" fill="#000000"/>\n<rect x="1400" y="180" width="20" height="20" fill="#000000"/>\n<rect x="1420" y="180" width="20" height="20" fill="#000000"/>\n<rect x="0" y="200" width="20" height="20" fill="#000000"/>\n<rect x="20" y="200" width="20" height="20" fill="#000000"/>\n<rect x="40" y="200" width="20" height="20" fill="#000000"/>\n<rect x="80" y="200" width="20" height="20" fill="#000000"/>\n<rect x="100" y="200" width="20" height="20" fill="#000000"/>\n<rect x="140" y="200" width="20" height="20" fill="#000000"/>\n<rect x="160" y="200" width="20" height="20" fill="#000000"/>\n<rect x="180" y="200" width="20" height="20" fill="#000000"/>\n<rect x="220" y="200" width="20" height="20" fill="#000000"/>\n<rect x="240" y="200" width="20" height="20" fill="#000000"/>\n<rect x="280" y="200" width="20" height="20" fill="#000000"/>\n<rect x="300" y="200" width="20" height="20" fill="#000000"/>\n<rect x="340" y="200" width="20" height="20" fill="#000000"/>\n<rect x="360" y="200" width="20" height="20" fill="#000000"/>\n<rect x="400" y="200" width="20" height="20" fill="#000000"/>\n<rect x="420" y="200" width="20" height="20" fill="#000000"/>\n<rect x="440" y="200" width="20" height="20" fill="#000000"/>\n<rect x="480" y="200" width="20" height="20" fill="#000000"/>\n<rect x="500" y="200" width="20" height="20" fill="#000000"/>\n<rect x="540" y="200" width="20" height="20" fill="#000000"/>\n<rect x="560" y="200" width="20" height="20" fill="#000000"/>\n<rect x="580" y="200" width="20" height="20" fill="#000000"/>\n<rect x="620" y="200" width="20" height="20" fill="#000000"/>\n<rect x="640" y="200" width="20" height="20" fill="#000000"/>\n<rect x="700" y="200" width="20" height="20" fill="#000000"/>\n<rect x="720" y="200" width="20" height="20" fill="#000000"/>\n<rect x="740" y="200" width="20" height="20" fill="#000000"/>\n<rect x="760" y="200" width="20" height="20" fill="#000000"/>\n<rect x="800" y="200" width="20" height="20" fill="#000000"/>\n<rect x="820" y="200" width="20" height="20" fill="#000000"/>\n<rect x="880" y="200" width="20" height="20" fill="#000000"/>\n<rect x="900" y="200" width="20" height="20" fill="#000000"/>\n<rect x="920" y="200" width="20" height="20" fill="#000000"/>\n<rect x="960" y="200" width="20" height="20" fill="#000000"/>\n<rect x="1020" y="200" width="20" height="20" fill="#000000"/>\n<rect x="1040" y="200" width="20" height="20" fill="#000000"/>\n<rect x="1060" y="200" width="20" height="20" fill="#000000"/>\n<rect x="1100" y="200" width="20" height="20" fill="#000000"/>\n<rect x="1120" y="200" width="20" height="20" fill="#000000"/>\n<rect x="1180" y="200" width="20" height="20" fill="#000000"/>\n<rect x="1200" y="200" width="20" height="20" fill="#000000"/>\n<rect x="1220" y="200" width="20" height="20" fill="#000000"/>\n<rect x="1260" y="200" width="20" height="20" fill="#000000"/>\n<rect x="1280" y="200" width="20" height="20" fill="#000000"/>\n<rect x="1320" y="200" width="20" height="20" fill="#000000"/>\n<rect x="1340" y="200" width="20" height="20" fill="#000000"/>\n<rect x="1360" y="200" width="20" height="20" fill="#000000"/>\n<rect x="1380" y="200" width="20" height="20" fill="#000000"/>\n<rect x="1400" y="200" width="20" height="20" fill="#000000"/>\n<rect x="1420" y="200" width="20" height="20" fill="#000000"/>\n<rect x="20" y="220" width="20" height="20" fill="#000000"/>\n<rect x="40" y="220" width="20" height="20" fill="#000000"/>\n<rect x="60" y="220" width="20" height="20" fill="#000000"/>\n<rect x="80" y="220" width="20" height="20" fill="#000000"/>\n<rect x="160" y="220" width="20" height="20" fill="#000000"/>\n<rect x="180" y="220" width="20" height="20" fill="#000000"/>\n<rect x="200" y="220" width="20" height="20" fill="#000000"/>\n<rect x="220" y="220" width="20" height="20" fill="#000000"/>\n<rect x="280" y="220" width="20" height="20" fill="#000000"/>\n<rect x="300" y="220" width="20" height="20" fill="#000000"/>\n<rect x="340" y="220" width="20" height="20" fill="#000000"/>\n<rect x="360" y="220" width="20" height="20" fill="#000000"/>\n<rect x="420" y="220" width="20" height="20" fill="#000000"/>\n<rect x="440" y="220" width="20" height="20" fill="#000000"/>\n<rect x="460" y="220" width="20" height="20" fill="#000000"/>\n<rect x="480" y="220" width="20" height="20" fill="#000000"/>\n<rect x="560" y="220" width="20" height="20" fill="#000000"/>\n<rect x="580" y="220" width="20" height="20" fill="#000000"/>\n<rect x="600" y="220" width="20" height="20" fill="#000000"/>\n<rect x="620" y="220" width="20" height="20" fill="#000000"/>\n<rect x="720" y="220" width="20" height="20" fill="#000000"/>\n<rect x="740" y="220" width="20" height="20" fill="#000000"/>\n<rect x="760" y="220" width="20" height="20" fill="#000000"/>\n<rect x="800" y="220" width="20" height="20" fill="#000000"/>\n<rect x="820" y="220" width="20" height="20" fill="#000000"/>\n<rect x="900" y="220" width="20" height="20" fill="#000000"/>\n<rect x="920" y="220" width="20" height="20" fill="#000000"/>\n<rect x="940" y="220" width="20" height="20" fill="#000000"/>\n<rect x="1040" y="220" width="20" height="20" fill="#000000"/>\n<rect x="1060" y="220" width="20" height="20" fill="#000000"/>\n<rect x="1080" y="220" width="20" height="20" fill="#000000"/>\n<rect x="1100" y="220" width="20" height="20" fill="#000000"/>\n<rect x="1200" y="220" width="20" height="20" fill="#000000"/>\n<rect x="1220" y="220" width="20" height="20" fill="#000000"/>\n<rect x="1240" y="220" width="20" height="20" fill="#000000"/>\n<rect x="1260" y="220" width="20" height="20" fill="#000000"/>\n<rect x="1320" y="220" width="20" height="20" fill="#000000"/>\n<rect x="1340" y="220" width="20" height="20" fill="#000000"/>\n<rect x="1360" y="220" width="20" height="20" fill="#000000"/>\n<rect x="1380" y="220" width="20" height="20" fill="#000000"/>\n<rect x="1400" y="220" width="20" height="20" fill="#000000"/>\n</svg>